<svg id="bb4db58d-7566-409e-a1bd-1e6c6b3ed157" data-name="Layer 1" xmlns="http://www.w3.org/2000/svg" viewBox="0 0 783.53 288.56"><polygon points="467.17 217.4 449.87 152.22 504.66 217.4 467.17 217.4" style="fill:#e0bc29"/><polygon points="535.9 217.4 519.82 182.58 557.47 217.4 535.9 217.4" style="fill:#e0bc29"/><path d="M401.05,876.8a36.38,36.38,0,0,1-6.52,4.74,17.56,17.56,0,0,1-7.85,1.63,15.55,15.55,0,0,1-6.52-1.34,15.33,15.33,0,0,1-5-3.7,18.26,18.26,0,0,1-3.11-5.48,16.67,16.67,0,0,1-1.18-6.67v-.15a16,16,0,0,1,1.18-6.52,15.64,15.64,0,0,1,3.27-5.47,13.83,13.83,0,0,1,5-3.71,14.82,14.82,0,0,1,6.37-1.33,17.45,17.45,0,0,1,7.41,1.63,30.65,30.65,0,0,1,6.52,4.59l7.7-8.89a45.59,45.59,0,0,0-4.15-3.41,24.71,24.71,0,0,0-4.74-2.66,19.9,19.9,0,0,0-5.78-1.63,33,33,0,0,0-7-.74,29.8,29.8,0,0,0-11.56,2.22,27,27,0,0,0-8.88,6.07,28.07,28.07,0,0,0-5.93,9,27.28,27.28,0,0,0-2.07,11v.15a27.52,27.52,0,0,0,2.07,11.11,25.93,25.93,0,0,0,5.93,8.89,23.4,23.4,0,0,0,8.88,5.93,27.59,27.59,0,0,0,11.11,2.22,37.43,37.43,0,0,0,7.27-.59,33.38,33.38,0,0,0,5.77-1.93,23.85,23.85,0,0,0,5-3.11,39,39,0,0,0,4.3-4.15Z" transform="translate(-358.24 -605.72)" style="fill:#fff"/><path d="M517.2,854.87a25.43,25.43,0,0,0-3.26-5.48,20.45,20.45,0,0,0-2.81-3.41,28.32,28.32,0,0,0-9.19-6.07,31.55,31.55,0,0,0-23.25,0,30.73,30.73,0,0,0-9.34,6.07,28,28,0,0,0-5.92,9,27.23,27.23,0,0,0-2.23,11v.15a29.29,29.29,0,0,0,2.08,11,28.37,28.37,0,0,0,6.07,9,28,28,0,0,0,9.18,5.93,30,30,0,0,0,11.71,2.22,29.71,29.71,0,0,0,11.55-2.22,30.76,30.76,0,0,0,9.34-6.08,26.48,26.48,0,0,0,5.92-9,26.76,26.76,0,0,0,2.23-11v-.15A29.92,29.92,0,0,0,517.2,854.87Zm-10.52,11.26a16.67,16.67,0,0,1-1.18,6.67,16.29,16.29,0,0,1-3.41,5.48,14.55,14.55,0,0,1-5.18,3.55,15.55,15.55,0,0,1-6.52,1.34,17,17,0,0,1-6.82-1.34,15.76,15.76,0,0,1-5.18-3.7,16.29,16.29,0,0,1-3.41-5.48A16.67,16.67,0,0,1,473.8,866v-.15a16,16,0,0,1,1.18-6.52,16.15,16.15,0,0,1,3.41-5.47,13.83,13.83,0,0,1,5-3.71,17,17,0,0,1,6.82-1.33,15.54,15.54,0,0,1,6.52,1.33,17.64,17.64,0,0,1,5.33,3.85,14.35,14.35,0,0,1,3.41,5.33,16.67,16.67,0,0,1,1.18,6.67Z" transform="translate(-358.24 -605.72)" style="fill:#fff"/><path d="M612,838.72v33.63l-9-11.85-8.44-11.11-8.15-10.67H575.28v54.67h12V858.58l18.22,24.14,8.15,10.67h10.22V838.72Z" transform="translate(-358.24 -605.72)" style="fill:#fff"/><path d="M728.62,882.72l-5.78-5.92a36.73,36.73,0,0,1-6.52,4.74,12.32,12.32,0,0,1-3.56,1.18,19.8,19.8,0,0,1-4.29.45,15.93,15.93,0,0,1-3.85-.45,9,9,0,0,1-2.67-.89,15.23,15.23,0,0,1-5-3.7,22.58,22.58,0,0,1-3.26-5.48c-.14-.44-.29-.89-.44-1.48a20.14,20.14,0,0,1-.74-5.19v-.15a15.57,15.57,0,0,1,.89-5.33,3.76,3.76,0,0,1,.29-1.19,18.89,18.89,0,0,1,3.41-5.47,12.71,12.71,0,0,1,5-3.71,11.43,11.43,0,0,1,2.07-.74,15.93,15.93,0,0,1,8.59,0,12.51,12.51,0,0,1,3.11,1A34.67,34.67,0,0,1,722.4,855l4.88-5.63,2.82-3.26a45.59,45.59,0,0,0-4.15-3.41,24.71,24.71,0,0,0-4.74-2.66,23,23,0,0,0-5.78-1.63,33,33,0,0,0-7-.74,29.8,29.8,0,0,0-11.56,2.22,27.6,27.6,0,0,0-9,6.07,19.08,19.08,0,0,0-2.67,3.41A21.12,21.12,0,0,0,682.1,855a23.21,23.21,0,0,0-1.63,5.48A32.51,32.51,0,0,0,680,866v.15c0,1.78.15,3.41.3,5a28.23,28.23,0,0,0,1.78,6.07,24.51,24.51,0,0,0,3,5.48,20,20,0,0,0,2.82,3.41,25.84,25.84,0,0,0,8.89,5.93A28.81,28.81,0,0,0,708,894.28a34.86,34.86,0,0,0,7.11-.59,31.39,31.39,0,0,0,5.92-1.93,28.39,28.39,0,0,0,5-3.11,38,38,0,0,0,4.29-4.15Z" transform="translate(-358.24 -605.72)" style="fill:#fff"/><path d="M825.36,882.72l-6.07-8.89a25.76,25.76,0,0,0,4.89-2.66,19.77,19.77,0,0,0,3.55-3.41,14.5,14.5,0,0,0,3-7.26A26.71,26.71,0,0,0,831,857v-.15a22.85,22.85,0,0,0-1.18-7.41,14.34,14.34,0,0,0-4.3-5.93c-3.56-3.26-8.59-4.74-15.11-4.74h-25v54.67h12V875.91h9.48l4.6,6.81,7.11,10.67h14.07Zm-28-33.18h12c3,0,5.34.59,7,1.92a7.2,7.2,0,0,1,2.52,5.93v.15a6.18,6.18,0,0,1-.59,3,8.33,8.33,0,0,1-1.78,2.67,10.56,10.56,0,0,1-7,2.07H797.36Z" transform="translate(-358.24 -605.72)" style="fill:#fff"/><rect x="528.91" y="277" width="41.19" height="10.67" style="fill:#fff"/><rect x="528.91" y="254.78" width="41.19" height="10.67" style="fill:#fff"/><path d="M980.92,838.72v11.11h16.6v43.56h12.14V849.83h16.6V838.72Z" transform="translate(-358.24 -605.72)" style="fill:#fff"/><rect x="722.54" y="254.78" width="41.09" height="10.67" style="fill:#fff"/><rect x="722.54" y="277" width="41.16" height="10.67" style="fill:#fff"/><path d="M514.14,820.29H358.24l24.62-175.73H538.79l-9.4,68.32H470.73l6.86-48.76H438.73l-19.3,136.63h38.86L465.14,752H523.8Z" transform="translate(-358.24 -605.72)" style="fill:#fff"/><path d="M590.59,820.29H532.18L562.4,605.72h58.4Z" transform="translate(-358.24 -605.72)" style="fill:#fff"/><polygon points="312.6 214.57 254.2 214.57 278.82 38.84 337.23 38.84 312.6 214.57" style="fill:#fff"/><polygon points="338.76 28.94 280.1 28.94 284.41 0 342.81 0 338.76 28.94" style="fill:#fff"/><path d="M1123.85,820.29H967.94l30.22-214.57h58.4l-27.42,195h39.11l12.07-92h-29.21l2.79-19.56h87.86Z" transform="translate(-358.24 -605.72)" style="fill:#fff"/><rect x="528.91" y="233" width="41.19" height="10.67" style="fill:#e0bc29"/><rect x="722.54" y="233.02" width="41.16" height="10.67" style="fill:#e0bc29"/><polygon points="615.52 38.75 590.91 214.57 503.89 111.24 492.32 125.03 501.96 147.86 463.56 102.2 402.93 174.25 409.75 193.08 382.62 160.61 337.25 214.57 361.86 38.75 436.21 38.75 487.04 99.13 546.09 38.75 615.52 38.75" style="fill:#e0bc29"/></svg>